{
  "source": "C:\\Users\\Peter\\Desktop\\stuff\\MIUN\\quantitative_research\\video_compression\\videos\\UVG\\Beauty_1920x1080_120fps_420_8bit_YUV.y4m",
  "output": "C:\\Users\\Peter\\Desktop\\stuff\\MIUN\\quantitative_research\\video_compression\\compressed_videos\\UVG\\vp9\\2.5\\Beauty_1920x1080_120fps_420_8bit_YUV_vp9.webm",
  "codec": "vp9",
  "ok": "[yuv4mpegpipe @ 00000129147e5280] Stream #0: not enough frames to estimate rate; consider increasing probesize\nInput #0, yuv4mpegpipe, from 'C:\\Users\\Peter\\Desktop\\stuff\\MIUN\\quantitative_research\\video_compression\\videos\\UVG\\Beauty_1920x1080_120fps_420_8bit_YUV.y4m':\n  Duration: 00:00:05.00, start: 0.000000, bitrate: 2985989 kb/s\n  Stream #0:0: Video: rawvideo (I420 / 0x30323449), yuv420p(progressive), 1920x1080, 120 fps, 120 tbr, 120 tbn\n[out#0/webm @ 00000129147e8e00] Codec AVOption b:a (set bitrate (in bits/s)) has not been used for any stream. The most likely reason is either wrong type (e.g. a video option with no video streams) or that it is a private option of some decoder which was not actually used for any stream.\nStream mapping:\n  Stream #0:0 -> #0:0 (rawvideo (native) -> vp9 (libvpx-vp9))\nPress [q] to stop, [?] for help\n[libvpx-vp9 @ 00000129147ebf80] v1.15.2-100-g40561f514\nOutput #0, webm, to 'C:\\Users\\Peter\\Desktop\\stuff\\MIUN\\quantitative_research\\video_compression\\compressed_videos\\UVG\\vp9\\2.5\\Beauty_1920x1080_120fps_420_8bit_YUV_vp9.webm':\n  Metadata:\n    encoder         : Lavf62.3.100\n  Stream #0:0: Video: vp9, yuv420p(tv, progressive), 1920x1080, q=2-31, 2500 kb/s, 120 fps, 1k tbn\n    Metadata:\n      encoder         : Lavc62.11.100 libvpx-vp9\n    Side data:\n      cpb: bitrate max/min/avg: 0/0/0 buffer size: 2500000 vbv_delay: N/A\nframe=    8 fps=0.0 q=50.0 size=       0KiB time=00:00:00.06 bitrate=  57.7kbits/s speed=0.13x elapsed=0:00:00.51    \nframe=   19 fps= 18 q=50.0 size=       0KiB time=00:00:00.15 bitrate=  24.3kbits/s speed=0.152x elapsed=0:00:01.03    \nframe=   29 fps= 19 q=52.0 size=       0KiB time=00:00:00.24 bitrate=  15.9kbits/s speed=0.155x elapsed=0:00:01.55    \nframe=   38 fps= 18 q=50.0 size=       0KiB time=00:00:00.31 bitrate=  12.2kbits/s speed=0.153x elapsed=0:00:02.07    \nframe=   47 fps= 18 q=52.0 size=       0KiB time=00:00:00.39 bitrate=   9.8kbits/s speed=0.152x elapsed=0:00:02.58    \nframe=   58 fps= 19 q=51.0 size=       0KiB time=00:00:00.48 bitrate=   8.0kbits/s speed=0.156x elapsed=0:00:03.09    \nframe=   68 fps= 19 q=47.0 size=       0KiB time=00:00:00.56 bitrate=   6.8kbits/s speed=0.157x elapsed=0:00:03.61    \nframe=   76 fps= 18 q=33.0 size=       0KiB time=00:00:00.63 bitrate=   6.1kbits/s speed=0.154x elapsed=0:00:04.12    \nframe=   87 fps= 19 q=50.0 size=       0KiB time=00:00:00.72 bitrate=   5.3kbits/s speed=0.156x elapsed=0:00:04.64    \nframe=   97 fps= 19 q=49.0 size=       0KiB time=00:00:00.80 bitrate=   4.8kbits/s speed=0.157x elapsed=0:00:05.15    \nframe=  107 fps= 19 q=51.0 size=       0KiB time=00:00:00.89 bitrate=   4.3kbits/s speed=0.157x elapsed=0:00:05.68    \nframe=  117 fps= 19 q=35.0 size=       0KiB time=00:00:00.97 bitrate=   3.9kbits/s speed=0.157x elapsed=0:00:06.19    \nframe=  128 fps= 19 q=51.0 size=       0KiB time=00:00:01.06 bitrate=   3.6kbits/s speed=0.159x elapsed=0:00:06.71    \nframe=  138 fps= 19 q=49.0 size=     256KiB time=00:00:01.15 bitrate=1823.6kbits/s speed=0.159x elapsed=0:00:07.23    \nframe=  149 fps= 19 q=48.0 size=     256KiB time=00:00:01.24 bitrate=1689.0kbits/s speed=0.16x elapsed=0:00:07.76    \nframe=  158 fps= 19 q=46.0 size=     256KiB time=00:00:01.31 bitrate=1592.8kbits/s speed=0.159x elapsed=0:00:08.27    \nframe=  168 fps= 19 q=50.0 size=     256KiB time=00:00:01.40 bitrate=1498.0kbits/s speed=0.159x elapsed=0:00:08.78    \nframe=  178 fps= 19 q=49.0 size=     256KiB time=00:00:01.48 bitrate=1413.8kbits/s speed=0.159x elapsed=0:00:09.30    \nframe=  188 fps= 19 q=49.0 size=     256KiB time=00:00:01.56 bitrate=1338.6kbits/s speed=0.16x elapsed=0:00:09.82    \nframe=  198 fps= 19 q=48.0 size=     256KiB time=00:00:01.65 bitrate=1271.0kbits/s speed=0.16x elapsed=0:00:10.33    \nframe=  207 fps= 19 q=50.0 size=     256KiB time=00:00:01.72 bitrate=1215.7kbits/s speed=0.159x elapsed=0:00:10.85    \nframe=  218 fps= 19 q=52.0 size=     256KiB time=00:00:01.81 bitrate=1154.4kbits/s speed=0.16x elapsed=0:00:11.36    \nframe=  229 fps= 19 q=51.0 size=     256KiB time=00:00:01.90 bitrate=1098.9kbits/s speed=0.161x elapsed=0:00:11.88    \nframe=  239 fps= 19 q=50.0 size=     256KiB time=00:00:01.99 bitrate=1053.0kbits/s speed=0.161x elapsed=0:00:12.39    \nframe=  250 fps= 19 q=48.0 size=     256KiB time=00:00:02.08 bitrate=1006.6kbits/s speed=0.161x elapsed=0:00:12.90    \nframe=  260 fps= 19 q=47.0 size=     512KiB time=00:00:02.16 bitrate=1935.8kbits/s speed=0.161x elapsed=0:00:13.42    \nframe=  271 fps= 19 q=51.0 size=     512KiB time=00:00:02.25 bitrate=1857.3kbits/s speed=0.162x elapsed=0:00:13.94    \nframe=  282 fps= 20 q=55.0 size=     512KiB time=00:00:02.35 bitrate=1784.8kbits/s speed=0.163x elapsed=0:00:14.45    \nframe=  292 fps= 20 q=51.0 size=     512KiB time=00:00:02.43 bitrate=1723.7kbits/s speed=0.163x elapsed=0:00:14.96    \nframe=  303 fps= 20 q=50.0 size=     512KiB time=00:00:02.52 bitrate=1661.1kbits/s speed=0.163x elapsed=0:00:15.49    \nframe=  315 fps= 20 q=49.0 size=     512KiB time=00:00:02.62 bitrate=1597.8kbits/s speed=0.164x elapsed=0:00:16.01    \nframe=  325 fps= 20 q=50.0 size=     512KiB time=00:00:02.70 bitrate=1548.7kbits/s speed=0.164x elapsed=0:00:16.52    \nframe=  336 fps= 20 q=49.0 size=     512KiB time=00:00:02.80 bitrate=1498.0kbits/s speed=0.164x elapsed=0:00:17.03    \nframe=  346 fps= 20 q=49.0 size=     512KiB time=00:00:02.88 bitrate=1454.7kbits/s speed=0.164x elapsed=0:00:17.55    \nframe=  359 fps= 20 q=51.0 size=     512KiB time=00:00:02.99 bitrate=1402.0kbits/s speed=0.166x elapsed=0:00:18.06    \nframe=  370 fps= 20 q=51.0 size=     512KiB time=00:00:03.08 bitrate=1360.3kbits/s speed=0.166x elapsed=0:00:18.58    \nframe=  381 fps= 20 q=52.0 size=     512KiB time=00:00:03.17 bitrate=1321.0kbits/s speed=0.166x elapsed=0:00:19.09    \nframe=  392 fps= 20 q=53.0 size=     768KiB time=00:00:03.26 bitrate=1926.0kbits/s speed=0.167x elapsed=0:00:19.61    \nframe=  404 fps= 20 q=50.0 size=     768KiB time=00:00:03.36 bitrate=1868.7kbits/s speed=0.167x elapsed=0:00:20.12    \nframe=  414 fps= 20 q=50.0 size=     768KiB time=00:00:03.45 bitrate=1823.6kbits/s speed=0.167x elapsed=0:00:20.64    \nframe=  426 fps= 20 q=50.0 size=     768KiB time=00:00:03.55 bitrate=1772.2kbits/s speed=0.168x elapsed=0:00:21.16    \nframe=  436 fps= 20 q=51.0 size=     768KiB time=00:00:03.63 bitrate=1731.6kbits/s speed=0.168x elapsed=0:00:21.67    \nframe=  446 fps= 20 q=51.0 size=     768KiB time=00:00:03.71 bitrate=1692.8kbits/s speed=0.168x elapsed=0:00:22.18    \nframe=  457 fps= 20 q=49.0 size=     768KiB time=00:00:03.80 bitrate=1652.0kbits/s speed=0.168x elapsed=0:00:22.70    \nframe=  467 fps= 20 q=47.0 size=     768KiB time=00:00:03.89 bitrate=1616.6kbits/s speed=0.168x elapsed=0:00:23.23    \nframe=  477 fps= 20 q=47.0 size=     768KiB time=00:00:03.97 bitrate=1582.8kbits/s speed=0.167x elapsed=0:00:23.74    \nframe=  488 fps= 20 q=49.0 size=     768KiB time=00:00:04.06 bitrate=1547.1kbits/s speed=0.168x elapsed=0:00:24.25    \nframe=  498 fps= 20 q=51.0 size=     768KiB time=00:00:04.15 bitrate=1516.0kbits/s speed=0.168x elapsed=0:00:24.77    \nframe=  508 fps= 20 q=48.0 size=     768KiB time=00:00:04.23 bitrate=1486.2kbits/s speed=0.167x elapsed=0:00:25.28    \nframe=  518 fps= 20 q=49.0 size=    1024KiB time=00:00:04.31 bitrate=1943.3kbits/s speed=0.167x elapsed=0:00:25.80    \nframe=  527 fps= 20 q=49.0 size=    1024KiB time=00:00:04.39 bitrate=1910.1kbits/s speed=0.167x elapsed=0:00:26.31    \nframe=  539 fps= 20 q=48.0 size=    1024KiB time=00:00:04.49 bitrate=1867.6kbits/s speed=0.167x elapsed=0:00:26.83    \nframe=  547 fps= 20 q=49.0 size=    1024KiB time=00:00:04.55 bitrate=1840.3kbits/s speed=0.167x elapsed=0:00:27.34    \nframe=  557 fps= 20 q=51.0 size=    1024KiB time=00:00:04.64 bitrate=1807.2kbits/s speed=0.167x elapsed=0:00:27.85    \nframe=  569 fps= 20 q=49.0 size=    1024KiB time=00:00:04.74 bitrate=1769.1kbits/s speed=0.167x elapsed=0:00:28.38    \nframe=  576 fps= 20 q=49.0 size=    1024KiB time=00:00:04.80 bitrate=1747.6kbits/s speed=0.166x elapsed=0:00:28.89    \nframe=  576 fps= 20 q=49.0 size=    1024KiB time=00:00:04.80 bitrate=1747.6kbits/s speed=0.163x elapsed=0:00:29.40    \n[out#0/webm @ 00000129147e8e00] video:1461KiB audio:0KiB subtitle:0KiB other streams:0KiB global headers:0KiB muxing overhead: 0.323463%\nframe=  600 fps= 20 q=49.0 Lsize=    1466KiB time=00:00:05.00 bitrate=2401.3kbits/s speed=0.167x elapsed=0:00:29.91    \n",
  "seconds": 29.984778881072998,
  "probe_out": {}
}